<mxfile host="app.diagrams.net" modified="2023-12-10T03:38:21.060Z" agent="Mozilla/5.0 (Windows NT 10.0; Win64; x64) AppleWebKit/537.36 (KHTML, like Gecko) Chrome/119.0.0.0 Safari/537.36 Edg/119.0.0.0" version="22.1.7" etag="cY5-aTedeUoYoXVx4HgG" type="github">
  <diagram name="第 1 页" id="GKMbQRndbOGy4dC813Gu">
    <mxGraphModel>
      <root>
        <mxCell id="0" />
        <mxCell id="1" parent="0" />
      </root>
    </mxGraphModel>
  </diagram>
</mxfile>
